<svg width="310" height="175" viewBox="0 0 310 175" fill="none" xmlns="http://www.w3.org/2000/svg">
<g opacity="0.3" clip-path="url(#clip0_0_232)">
<path fill-rule="evenodd" clip-rule="evenodd" d="M310 36.5519C310.204 44.7199 306.116 51.2544 297.325 45.741C293.646 43.4947 295.486 40.4317 295.894 36.5519C300.596 31.0385 304.685 32.2637 310 36.5519Z" fill="#DEB905"/>
<path fill-rule="evenodd" clip-rule="evenodd" d="M310 69.8367C308.773 80.4551 302.64 81.2719 295.281 74.9417C296.508 64.7317 303.049 61.6686 310 69.8367Z" fill="#DEB905"/>
<path fill-rule="evenodd" clip-rule="evenodd" d="M309.386 100.671C309.591 107.41 306.933 113.944 298.961 109.86C294.872 107.614 296.099 105.368 296.508 101.284C301.005 95.9745 303.867 96.9955 309.386 100.671Z" fill="#DEB905"/>
<path fill-rule="evenodd" clip-rule="evenodd" d="M309.387 133.343C308.364 142.736 303.458 145.595 295.895 139.061C295.895 129.259 302.027 127.217 309.387 133.343Z" fill="#DEB905"/>
<path fill-rule="evenodd" clip-rule="evenodd" d="M308.16 164.79C308.364 173.162 304.276 176.021 297.325 171.12C297.325 162.544 301.005 160.298 308.16 164.79Z" fill="#DEB905"/>
<path fill-rule="evenodd" clip-rule="evenodd" d="M294.668 84.5391C294.668 91.0735 294.463 91.8903 289.557 95.9743C285.264 95.9743 280.767 94.9533 278.723 90.8693C278.314 79.434 286.9 78.8214 294.668 84.5391Z" fill="#DEB905"/>
<path fill-rule="evenodd" clip-rule="evenodd" d="M294.055 52.6838C294.463 63.7106 287.513 65.9568 279.336 59.8308C279.336 48.5998 285.264 46.3536 294.055 52.6838Z" fill="#DEB905"/>
<path fill-rule="evenodd" clip-rule="evenodd" d="M293.441 117.824C292.01 127.626 286.9 128.034 279.949 122.316C281.38 112.923 286.491 112.106 293.441 117.824Z" fill="#DEB905"/>
<path fill-rule="evenodd" clip-rule="evenodd" d="M292.828 149.883C291.602 158.868 287.309 159.889 280.563 154.376C281.789 145.595 286.082 144.37 292.828 149.883Z" fill="#DEB905"/>
<path fill-rule="evenodd" clip-rule="evenodd" d="M278.723 69.2239C277.496 80.0466 270.341 82.497 262.778 74.9415C263.595 64.5273 270.955 61.6685 278.723 69.2239Z" fill="#DEB905"/>
<path fill-rule="evenodd" clip-rule="evenodd" d="M278.723 101.896C277.905 110.064 267.888 117.211 263.391 107.001C263.186 95.7702 271.568 93.7282 278.723 101.896Z" fill="#DEB905"/>
<path fill-rule="evenodd" clip-rule="evenodd" d="M277.496 37.1645C276.679 43.9032 272.999 50.4376 266.048 44.5158C262.982 41.8612 264.004 42.678 264.617 37.7771C269.319 32.2637 271.159 32.6721 277.496 37.1645Z" fill="#DEB905"/>
<path fill-rule="evenodd" clip-rule="evenodd" d="M276.679 133.956C275.452 142.941 271.159 144.166 264.413 138.448C265.844 129.463 269.933 128.442 276.679 133.956Z" fill="#DEB905"/>
<path fill-rule="evenodd" clip-rule="evenodd" d="M276.678 166.015C275.861 171.733 272.999 177.246 266.662 172.754C263.595 171.529 263.186 169.282 265.026 166.015C269.728 160.502 271.568 161.523 276.678 166.015Z" fill="#DEB905"/>
<path fill-rule="evenodd" clip-rule="evenodd" d="M261.96 52.0712C262.369 63.3023 256.236 66.7737 247.241 59.8309C247.241 49.0082 253.17 46.1494 261.96 52.0712Z" fill="#DEB905"/>
<path fill-rule="evenodd" clip-rule="evenodd" d="M261.96 83.9264C262.369 93.7281 257.054 99.4457 247.855 92.9113C242.335 81.476 255.009 79.434 261.96 83.9264Z" fill="#DEB905"/>
<path fill-rule="evenodd" clip-rule="evenodd" d="M261.96 117.416C262.164 123.95 256.236 132.731 249.286 125.584C245.197 121.295 248.672 115.986 251.739 112.923C256.645 113.331 258.28 114.148 261.96 117.416Z" fill="#DEB905"/>
<path fill-rule="evenodd" clip-rule="evenodd" d="M260.733 149.271C260.938 157.847 255.623 160.706 248.672 155.805C248.468 147.433 253.374 141.919 260.733 149.271Z" fill="#DEB905"/>
<path fill-rule="evenodd" clip-rule="evenodd" d="M246.628 37.9814C245.606 47.9873 230.274 52.4797 231.296 40.2276C232.114 30.2218 241.722 31.0386 246.628 37.9814Z" fill="#DEB905"/>
<path fill-rule="evenodd" clip-rule="evenodd" d="M246.015 101.284C244.788 111.698 239.064 113.74 231.296 107.001C231.092 96.3827 239.064 94.3407 246.015 101.284Z" fill="#DEB905"/>
<path fill-rule="evenodd" clip-rule="evenodd" d="M246.015 133.343C244.993 143.349 239.269 146.004 231.296 139.878C231.296 130.076 238.86 124.767 246.015 133.343Z" fill="#DEB905"/>
<path fill-rule="evenodd" clip-rule="evenodd" d="M245.402 68.6115C245.81 78.8215 239.882 81.6803 231.91 75.1459C231.705 66.1611 238.656 62.077 245.402 68.6115Z" fill="#DEB905"/>
<path fill-rule="evenodd" clip-rule="evenodd" d="M243.357 165.403C243.562 173.162 240.086 175.613 233.749 171.12C233.749 164.994 237.838 159.685 243.357 165.403Z" fill="#DEB905"/>
<path fill-rule="evenodd" clip-rule="evenodd" d="M230.07 53.909C228.639 66.5695 212.285 64.9359 216.578 53.5006C219.031 46.5578 226.594 49.2124 230.07 53.909Z" fill="#DEB905"/>
<path fill-rule="evenodd" clip-rule="evenodd" d="M230.07 116.599C229.048 126.4 224.141 130.893 215.351 124.154C215.147 114.352 222.302 109.043 230.07 116.599Z" fill="#DEB905"/>
<path fill-rule="evenodd" clip-rule="evenodd" d="M229.252 149.883C228.434 155.193 228.23 159.072 221.688 158.051C220.257 157.847 216.373 157.03 216.373 154.988C216.169 144.983 222.301 143.962 229.252 149.883Z" fill="#DEB905"/>
<path fill-rule="evenodd" clip-rule="evenodd" d="M228.639 85.356C228.639 90.6652 227.003 95.566 220.87 93.9324C211.467 91.482 218.417 78.4132 228.639 85.356Z" fill="#DEB905"/>
<path fill-rule="evenodd" clip-rule="evenodd" d="M213.307 37.1645C213.511 44.3115 205.743 52.6837 200.224 43.9031C194.091 34.3057 207.583 29.4048 213.307 37.1645Z" fill="#DEB905"/>
<path fill-rule="evenodd" clip-rule="evenodd" d="M213.307 133.343C212.285 142.736 207.583 145.595 199.815 139.061C199.406 129.055 206.97 128.034 213.307 133.343Z" fill="#DEB905"/>
<path fill-rule="evenodd" clip-rule="evenodd" d="M212.693 69.224C212.693 74.5333 211.058 79.4341 205.13 77.8005C195.726 75.3501 202.268 62.2812 212.693 69.224Z" fill="#DEB905"/>
<path fill-rule="evenodd" clip-rule="evenodd" d="M212.693 101.284C212.898 110.064 207.787 112.923 200.428 107.614C200.428 99.4458 205.334 93.9324 212.693 101.284Z" fill="#DEB905"/>
<path fill-rule="evenodd" clip-rule="evenodd" d="M212.693 166.015C211.467 174.796 207.174 176.021 200.428 170.508C201.655 161.523 205.947 160.297 212.693 166.015Z" fill="#DEB905"/>
<path fill-rule="evenodd" clip-rule="evenodd" d="M196.544 52.0713C196.135 56.7679 196.135 58.1973 193.273 62.2813C191.638 62.2813 183.665 62.2813 183.665 59.0141C183.665 50.8461 189.798 45.1284 196.544 52.0713Z" fill="#DEB905"/>
<path fill-rule="evenodd" clip-rule="evenodd" d="M196.544 85.3559C195.726 92.7072 191.842 97.4038 184.279 91.6862C184.483 83.1097 189.389 78.0047 196.544 85.3559Z" fill="#DEB905"/>
<path fill-rule="evenodd" clip-rule="evenodd" d="M196.544 148.658C196.953 157.643 192.251 161.319 184.279 155.805C184.483 148.25 189.798 141.715 196.544 148.658Z" fill="#DEB905"/>
<path fill-rule="evenodd" clip-rule="evenodd" d="M195.317 117.824C195.317 124.154 191.842 126.4 186.323 122.929C186.323 117.415 189.798 112.31 195.317 117.824Z" fill="#DEB905"/>
<path fill-rule="evenodd" clip-rule="evenodd" d="M181.212 37.9813C180.394 44.3115 172.626 51.4585 168.333 43.0863C169.355 35.1225 174.671 30.2217 181.212 37.9813Z" fill="#DEB905"/>
<path fill-rule="evenodd" clip-rule="evenodd" d="M181.212 69.224C181.417 79.4341 166.289 81.4761 167.925 71.4702C169.151 64.7316 178.146 62.6896 181.212 69.224Z" fill="#DEB905"/>
<path fill-rule="evenodd" clip-rule="evenodd" d="M181.212 166.015C180.599 170.712 181.008 171.324 177.328 175C175.693 175 168.333 174.796 168.333 171.733C167.925 164.79 177.124 157.643 181.212 166.015Z" fill="#DEB905"/>
<path fill-rule="evenodd" clip-rule="evenodd" d="M165.267 53.2965C165.267 59.0141 161.792 66.5696 154.637 61.4645C150.957 58.8099 151.775 58.6057 152.388 53.9091C157.09 48.3957 158.93 48.8041 165.267 53.2965Z" fill="#DEB905"/>
<path fill-rule="evenodd" clip-rule="evenodd" d="M163.836 85.9685C163.427 89.2357 163.018 93.9323 158.521 93.5239C157.09 93.5239 153.002 92.2987 153.002 90.4609C153.002 82.4971 158.112 80.0467 163.836 85.9685Z" fill="#DEB905"/>
<path fill-rule="evenodd" clip-rule="evenodd" d="M163.836 149.883C163.836 157.439 159.339 159.685 153.002 155.601C153.002 147.841 157.09 142.94 163.836 149.883Z" fill="#DEB905"/>
<path fill-rule="evenodd" clip-rule="evenodd" d="M163.223 117.824C163.223 124.358 153.615 127.421 153.615 121.704C154.024 114.761 158.112 114.352 163.223 117.824Z" fill="#DEB905"/>
<path fill-rule="evenodd" clip-rule="evenodd" d="M149.117 37.9814C147.686 47.783 142.576 48.1914 135.625 42.4738C137.056 32.6721 142.371 32.0595 149.117 37.9814Z" fill="#DEB905"/>
<path fill-rule="evenodd" clip-rule="evenodd" d="M147.891 69.8366C147.482 73.1038 147.073 77.8005 142.576 77.3921C141.145 77.3921 137.056 76.1669 137.056 74.329C137.056 66.161 141.963 65.3442 147.891 69.8366Z" fill="#DEB905"/>
<path fill-rule="evenodd" clip-rule="evenodd" d="M147.891 133.956C147.891 141.511 143.394 143.757 137.056 139.673C137.056 131.71 140.94 127.013 147.891 133.956Z" fill="#DEB905"/>
<path fill-rule="evenodd" clip-rule="evenodd" d="M147.278 101.283C147.482 109.043 144.007 111.493 137.67 107.001C137.67 100.875 141.554 95.5658 147.278 101.283Z" fill="#DEB905"/>
<path fill-rule="evenodd" clip-rule="evenodd" d="M131.946 53.9091C131.128 59.2183 124.995 66.1611 121.111 58.4015C121.111 50.4376 126.426 48.3956 131.946 53.9091Z" fill="#DEB905"/>
<path fill-rule="evenodd" clip-rule="evenodd" d="M131.946 117.415C132.15 126.604 127.653 128.442 120.294 122.52C119.885 113.74 126.017 113.74 131.946 117.415Z" fill="#DEB905"/>
<path fill-rule="evenodd" clip-rule="evenodd" d="M131.332 85.3559C131.537 93.1156 128.062 95.566 121.724 91.0736C121.724 84.9475 125.609 79.6383 131.332 85.3559Z" fill="#DEB905"/>
<path fill-rule="evenodd" clip-rule="evenodd" d="M131.332 149.883C131.332 156.418 121.724 159.481 121.724 153.763C122.133 146.616 126.017 146.412 131.332 149.883Z" fill="#DEB905"/>
<path fill-rule="evenodd" clip-rule="evenodd" d="M117.227 4.69661C117.636 14.7024 111.708 17.5613 103.735 11.8436C103.735 2.6546 109.459 -3.06302 117.227 4.69661Z" fill="#DEB905"/>
<path fill-rule="evenodd" clip-rule="evenodd" d="M117.227 166.015C117.227 172.141 111.708 178.063 105.984 172.345C103.531 169.895 104.757 167.649 104.962 164.79C109.663 158.664 112.525 161.931 117.227 166.015Z" fill="#DEB905"/>
<path fill-rule="evenodd" clip-rule="evenodd" d="M115.796 36.5519C116.001 43.2906 115.183 46.5578 108.028 45.5368C100.055 38.7981 107.415 31.6511 115.796 36.5519Z" fill="#DEB905"/>
<path fill-rule="evenodd" clip-rule="evenodd" d="M115.796 69.8367C114.978 75.1459 108.846 82.0887 104.962 74.3291C105.166 66.5694 110.277 64.3232 115.796 69.8367Z" fill="#DEB905"/>
<path fill-rule="evenodd" clip-rule="evenodd" d="M115.796 100.671C116.001 107.001 114.365 112.719 107.006 109.452C99.2378 105.98 108.437 93.3199 115.796 100.671Z" fill="#DEB905"/>
<path fill-rule="evenodd" clip-rule="evenodd" d="M115.796 133.956C114.978 139.265 108.846 146.208 104.962 138.448C105.166 130.484 110.277 128.442 115.796 133.956Z" fill="#DEB905"/>
<path fill-rule="evenodd" clip-rule="evenodd" d="M101.078 149.883C101.282 158.051 95.9671 160.706 88.8122 156.214C83.7016 145.799 94.5361 144.166 101.078 149.883Z" fill="#DEB905"/>
<path fill-rule="evenodd" clip-rule="evenodd" d="M100.464 20.6242C100.669 26.3418 94.1272 36.5518 89.0165 27.3628C83.7015 17.9696 95.1493 17.357 100.464 20.6242Z" fill="#DEB905"/>
<path fill-rule="evenodd" clip-rule="evenodd" d="M100.464 85.9685C99.4423 93.3197 95.9671 96.7912 88.8122 92.2987C84.1104 82.4971 94.7405 81.0677 100.464 85.9685Z" fill="#DEB905"/>
<path fill-rule="evenodd" clip-rule="evenodd" d="M99.8511 53.2963C100.056 61.4644 95.5582 63.7106 89.0166 59.0139C89.0166 50.6417 92.4918 49.0081 99.8511 53.2963Z" fill="#DEB905"/>
<path fill-rule="evenodd" clip-rule="evenodd" d="M99.8511 117.415C99.8511 125.175 95.7626 128.034 89.0166 123.746C89.0166 115.169 92.083 112.719 99.8511 117.415Z" fill="#DEB905"/>
<path fill-rule="evenodd" clip-rule="evenodd" d="M85.1325 4.69654C85.3369 11.4352 82.6794 17.9696 74.7068 13.8856C66.121 9.39316 76.3422 -4.08409 85.1325 4.69654Z" fill="#DEB905"/>
<path fill-rule="evenodd" clip-rule="evenodd" d="M85.1325 133.956C85.1325 135.589 85.1325 142.328 82.4749 142.328C80.6351 142.532 72.2537 142.532 72.2537 139.265C71.436 129.667 79.2041 127.013 85.1325 133.956Z" fill="#DEB905"/>
<path fill-rule="evenodd" clip-rule="evenodd" d="M84.5192 69.2241C83.7015 76.5753 79.613 81.4761 72.4582 75.5543C72.2537 66.3653 76.5466 64.119 84.5192 69.2241Z" fill="#DEB905"/>
<path fill-rule="evenodd" clip-rule="evenodd" d="M83.9059 36.552C84.1103 44.72 80.6351 48.3956 73.0714 43.4948C72.8669 35.1226 75.5245 31.6512 83.9059 36.552Z" fill="#DEB905"/>
<path fill-rule="evenodd" clip-rule="evenodd" d="M83.906 100.671C84.1104 108.839 80.6352 112.515 73.0715 107.818C69.1874 100.058 78.591 95.566 83.906 100.671Z" fill="#DEB905"/>
<path fill-rule="evenodd" clip-rule="evenodd" d="M83.9059 165.403C84.1104 174.592 79.613 176.429 72.4581 170.508C72.0493 163.156 78.3865 160.093 83.9059 165.403Z" fill="#DEB905"/>
<path fill-rule="evenodd" clip-rule="evenodd" d="M68.983 53.909C67.552 63.9149 62.4414 64.3233 55.491 59.0141C55.6954 48.5998 62.6458 48.3956 68.983 53.909Z" fill="#DEB905"/>
<path fill-rule="evenodd" clip-rule="evenodd" d="M68.983 117.415C69.3918 128.238 63.0547 129.055 55.491 123.133C55.6954 112.923 61.0104 111.698 68.983 117.415Z" fill="#DEB905"/>
<path fill-rule="evenodd" clip-rule="evenodd" d="M68.3697 20.6242C68.5742 29.6091 64.0768 33.0805 56.1042 27.5671C56.3087 18.1738 59.9883 15.1108 68.3697 20.6242Z" fill="#DEB905"/>
<path fill-rule="evenodd" clip-rule="evenodd" d="M68.3697 85.9684C67.3476 92.2986 64.2812 97.1994 57.9441 92.5028C54.8777 90.2566 56.1042 90.4608 56.7175 85.9684C61.4193 80.455 63.2591 81.6802 68.3697 85.9684Z" fill="#DEB905"/>
<path fill-rule="evenodd" clip-rule="evenodd" d="M67.7565 148.658C67.9609 154.784 66.3255 160.706 58.9662 157.439C50.9936 153.967 60.3971 141.307 67.7565 148.658Z" fill="#DEB905"/>
<path fill-rule="evenodd" clip-rule="evenodd" d="M53.0378 5.10505C52.0157 13.2731 47.9272 17.7655 40.159 12.2521C35.2528 2.65464 46.7006 3.60012e-05 53.0378 5.10505Z" fill="#DEB905"/>
<path fill-rule="evenodd" clip-rule="evenodd" d="M53.0378 36.5519C53.2422 46.5577 47.5183 49.6208 39.5458 43.4947C39.5458 34.7141 45.2697 28.9965 53.0378 36.5519Z" fill="#DEB905"/>
<path fill-rule="evenodd" clip-rule="evenodd" d="M53.0378 101.283C52.629 104.959 53.8555 109.247 49.1538 110.677C46.9051 111.289 39.5458 109.451 39.5458 106.388C39.3414 96.9952 46.4962 94.749 53.0378 101.283Z" fill="#DEB905"/>
<path fill-rule="evenodd" clip-rule="evenodd" d="M52.4246 69.2239C51.8113 74.7373 44.6564 84.1306 40.1591 74.9415C40.1591 65.7525 45.0653 64.3231 52.4246 69.2239Z" fill="#DEB905"/>
<path fill-rule="evenodd" clip-rule="evenodd" d="M52.4245 133.956C51.4024 141.307 47.9272 144.778 40.9768 140.286C35.8661 130.688 46.7006 129.055 52.4245 133.956Z" fill="#DEB905"/>
<path fill-rule="evenodd" clip-rule="evenodd" d="M51.198 166.015C51.198 173.979 41.1811 173.979 42.4077 167.036C43.4298 161.319 47.7227 163.565 51.198 166.015Z" fill="#DEB905"/>
<path fill-rule="evenodd" clip-rule="evenodd" d="M37.706 21.2369C36.6839 29.4049 35.0485 30.8343 26.8715 30.8343C18.4901 21.0327 28.5069 12.0478 37.706 21.2369Z" fill="#DEB905"/>
<path fill-rule="evenodd" clip-rule="evenodd" d="M37.0927 85.3558C36.0706 96.5868 31.1644 97.6079 22.9874 90.4608C22.9874 80.455 30.3467 79.6382 37.0927 85.3558Z" fill="#DEB905"/>
<path fill-rule="evenodd" clip-rule="evenodd" d="M36.275 52.6837C36.4794 59.8308 33.0042 66.7736 25.6449 60.4434C22.1697 57.3803 23.1918 54.9299 25.8493 51.6627C29.9378 47.3745 32.1865 49.6207 36.275 52.6837Z" fill="#DEB905"/>
<path fill-rule="evenodd" clip-rule="evenodd" d="M36.275 117.824C35.4573 124.154 32.1865 129.055 25.8493 124.358C22.783 122.112 24.0095 122.521 24.6228 117.824C29.529 112.515 31.1644 113.74 36.275 117.824Z" fill="#DEB905"/>
<path fill-rule="evenodd" clip-rule="evenodd" d="M35.0484 149.271C35.0484 156.826 31.3688 158.664 25.4404 154.376C25.4404 148.25 29.9378 143.961 35.0484 149.271Z" fill="#DEB905"/>
<path fill-rule="evenodd" clip-rule="evenodd" d="M22.1696 3.87982C21.5564 11.8437 16.2413 21.8495 7.85991 12.8647C5.40681 10.21 5.81567 5.51343 8.26876 2.65462C12.9705 -2.4504 17.8767 0.816814 22.1696 3.87982Z" fill="#DEB905"/>
<path fill-rule="evenodd" clip-rule="evenodd" d="M20.9431 37.1645C21.1476 44.5157 16.8546 50.2333 9.49535 44.9241C6.42898 42.6779 7.85995 40.6359 8.2688 37.1645C12.7661 31.8552 15.6281 32.8762 20.9431 37.1645Z" fill="#DEB905"/>
<path fill-rule="evenodd" clip-rule="evenodd" d="M20.9431 68.6113C21.1475 76.5752 16.8546 83.7222 9.08647 76.9836C1.52276 70.4491 13.175 60.8517 20.9431 68.6113Z" fill="#DEB905"/>
<path fill-rule="evenodd" clip-rule="evenodd" d="M20.3298 101.284C19.7166 107.001 12.9705 115.986 8.06433 107.001C8.06433 97.8122 12.9705 96.3828 20.3298 101.284Z" fill="#DEB905"/>
<path fill-rule="evenodd" clip-rule="evenodd" d="M19.7166 133.956C19.5121 140.898 15.0148 143.349 9.49533 139.673C5.20241 131.709 14.6059 128.851 19.7166 133.956Z" fill="#DEB905"/>
<path fill-rule="evenodd" clip-rule="evenodd" d="M19.1033 166.015C19.1033 172.55 9.49536 175.408 9.49536 169.895C9.90421 162.544 13.9927 162.339 19.1033 166.015Z" fill="#DEB905"/>
<path fill-rule="evenodd" clip-rule="evenodd" d="M6.22458 21.8496C5.61131 26.7504 5.81573 27.363 2.34051 31.447C-1.9524 31.6512 -7.47187 31.8554 -8.69841 26.9546C-10.9471 15.9278 0.296269 13.8858 6.22458 21.8496Z" fill="#DEB905"/>
<path fill-rule="evenodd" clip-rule="evenodd" d="M5.61127 53.909C4.38472 63.9148 -1.54359 65.5485 -9.1073 59.6266C-9.1073 49.0082 -1.13475 46.1494 5.61127 53.909Z" fill="#DEB905"/>
<path fill-rule="evenodd" clip-rule="evenodd" d="M4.38478 84.5392C4.58921 93.5241 0.091857 96.9955 -7.67629 91.482C-7.88072 82.293 -3.79221 79.6384 4.38478 84.5392Z" fill="#DEB905"/>
<path fill-rule="evenodd" clip-rule="evenodd" d="M3.77146 116.599C3.97588 124.971 -0.112604 128.034 -7.06305 122.929C-7.26747 116.599 -2.36129 110.473 3.77146 116.599Z" fill="#DEB905"/>
<path fill-rule="evenodd" clip-rule="evenodd" d="M2.95381 149.271C2.95381 156.826 -0.725848 158.664 -6.65417 154.376C-6.44975 148.454 -2.15681 143.962 2.95381 149.271Z" fill="#DEB905"/>
</g>
<defs>
<clipPath id="clip0_0_232">
<rect width="462" height="175" fill="white" transform="translate(-152)"/>
</clipPath>
</defs>
</svg>
