<svg width="333" height="171" viewBox="0 0 333 171" fill="none" xmlns="http://www.w3.org/2000/svg">
<g opacity="0.3" clip-path="url(#clip0_0_88)">
<path fill-rule="evenodd" clip-rule="evenodd" d="M340.245 50.881C339.846 55.4703 339.846 56.867 337.053 60.8577C335.456 60.8577 327.673 60.8577 327.673 57.6651C327.673 49.6838 333.66 44.0969 340.245 50.881Z" fill="#DEB905"/>
<path fill-rule="evenodd" clip-rule="evenodd" d="M340.245 83.405C339.447 90.5882 335.656 95.1774 328.272 89.5905C328.472 81.2101 333.261 76.2218 340.245 83.405Z" fill="#DEB905"/>
<path fill-rule="evenodd" clip-rule="evenodd" d="M340.245 145.26C340.645 154.04 336.055 157.631 328.272 152.244C328.472 144.861 333.66 138.476 340.245 145.26Z" fill="#DEB905"/>
<path fill-rule="evenodd" clip-rule="evenodd" d="M339.048 115.131C339.048 121.316 335.656 123.511 330.268 120.119C330.268 114.732 333.66 109.743 339.048 115.131Z" fill="#DEB905"/>
<path fill-rule="evenodd" clip-rule="evenodd" d="M325.279 37.1132C324.48 43.2987 316.897 50.2824 312.707 42.1015C313.704 34.3197 318.893 29.5309 325.279 37.1132Z" fill="#DEB905"/>
<path fill-rule="evenodd" clip-rule="evenodd" d="M325.279 67.6417C325.478 77.6183 310.711 79.6137 312.307 69.8365C313.505 63.2519 322.285 61.2566 325.279 67.6417Z" fill="#DEB905"/>
<path fill-rule="evenodd" clip-rule="evenodd" d="M325.279 162.221C324.68 166.81 325.079 167.408 321.487 171C319.891 171 312.707 170.8 312.707 167.807C312.307 161.023 321.288 154.04 325.279 162.221Z" fill="#DEB905"/>
<path fill-rule="evenodd" clip-rule="evenodd" d="M309.713 52.0782C309.713 57.6651 306.321 65.0479 299.336 60.0595C295.744 57.4656 296.542 57.2661 297.141 52.6768C301.731 47.2894 303.527 47.6885 309.713 52.0782Z" fill="#DEB905"/>
<path fill-rule="evenodd" clip-rule="evenodd" d="M308.316 84.0036C307.917 87.1961 307.518 91.7854 303.128 91.3863C301.731 91.3863 297.74 90.1891 297.74 88.3933C297.74 80.6115 302.729 78.2171 308.316 84.0036Z" fill="#DEB905"/>
<path fill-rule="evenodd" clip-rule="evenodd" d="M308.316 146.457C308.316 153.84 303.926 156.035 297.74 152.044C297.74 144.462 301.731 139.673 308.316 146.457Z" fill="#DEB905"/>
<path fill-rule="evenodd" clip-rule="evenodd" d="M307.718 115.131C307.718 121.516 298.338 124.509 298.338 118.922C298.737 112.138 302.729 111.739 307.718 115.131Z" fill="#DEB905"/>
<path fill-rule="evenodd" clip-rule="evenodd" d="M293.948 37.1132C292.551 46.6908 287.562 47.0899 280.777 41.5029C282.174 31.9254 287.363 31.3268 293.948 37.1132Z" fill="#DEB905"/>
<path fill-rule="evenodd" clip-rule="evenodd" d="M292.751 68.2403C292.352 71.4329 291.953 76.0221 287.562 75.6231C286.165 75.6231 282.174 74.4259 282.174 72.6301C282.174 64.6487 286.964 63.8506 292.751 68.2403Z" fill="#DEB905"/>
<path fill-rule="evenodd" clip-rule="evenodd" d="M292.751 130.894C292.751 138.277 288.36 140.471 282.174 136.481C282.174 128.699 285.966 124.11 292.751 130.894Z" fill="#DEB905"/>
<path fill-rule="evenodd" clip-rule="evenodd" d="M292.152 98.9684C292.352 106.551 288.959 108.945 282.773 104.555C282.773 98.5693 286.564 93.3815 292.152 98.9684Z" fill="#DEB905"/>
<path fill-rule="evenodd" clip-rule="evenodd" d="M277.185 52.6768C276.387 57.8646 270.4 64.6488 266.609 57.0665C266.609 49.2847 271.797 47.2894 277.185 52.6768Z" fill="#DEB905"/>
<path fill-rule="evenodd" clip-rule="evenodd" d="M277.185 114.732C277.385 123.711 272.995 125.506 265.811 119.72C265.411 111.14 271.398 111.14 277.185 114.732Z" fill="#DEB905"/>
<path fill-rule="evenodd" clip-rule="evenodd" d="M276.587 83.4049C276.786 90.9872 273.394 93.3816 267.207 88.9919C267.207 83.0059 270.999 77.818 276.587 83.4049Z" fill="#DEB905"/>
<path fill-rule="evenodd" clip-rule="evenodd" d="M276.587 146.458C276.587 152.843 267.207 155.836 267.207 150.249C267.607 143.265 271.398 143.065 276.587 146.458Z" fill="#DEB905"/>
<path fill-rule="evenodd" clip-rule="evenodd" d="M262.817 4.58927C263.216 14.3664 257.429 17.1599 249.646 11.5729C249.646 2.59394 255.234 -2.993 262.817 4.58927Z" fill="#DEB905"/>
<path fill-rule="evenodd" clip-rule="evenodd" d="M262.817 162.221C262.817 168.207 257.429 173.993 251.841 168.406C249.447 166.012 250.644 163.817 250.844 161.023C255.434 155.037 258.227 158.23 262.817 162.221Z" fill="#DEB905"/>
<path fill-rule="evenodd" clip-rule="evenodd" d="M261.42 35.7164C261.62 42.301 260.822 45.4935 253.837 44.4959C246.054 37.9113 253.238 30.9276 261.42 35.7164Z" fill="#DEB905"/>
<path fill-rule="evenodd" clip-rule="evenodd" d="M261.42 68.2404C260.622 73.4283 254.635 80.2124 250.844 72.6301C251.043 65.0479 256.032 62.853 261.42 68.2404Z" fill="#DEB905"/>
<path fill-rule="evenodd" clip-rule="evenodd" d="M261.42 98.37C261.62 104.555 260.023 110.142 252.839 106.95C245.256 103.558 254.236 91.1868 261.42 98.37Z" fill="#DEB905"/>
<path fill-rule="evenodd" clip-rule="evenodd" d="M261.42 130.894C260.622 136.082 254.635 142.866 250.844 135.284C251.043 127.502 256.032 125.506 261.42 130.894Z" fill="#DEB905"/>
<path fill-rule="evenodd" clip-rule="evenodd" d="M247.052 146.457C247.252 154.439 242.063 157.033 235.079 152.643C230.09 142.467 240.666 140.871 247.052 146.457Z" fill="#DEB905"/>
<path fill-rule="evenodd" clip-rule="evenodd" d="M246.453 20.1528C246.653 25.7398 240.267 35.7164 235.278 26.7374C230.09 17.5589 241.265 16.9603 246.453 20.1528Z" fill="#DEB905"/>
<path fill-rule="evenodd" clip-rule="evenodd" d="M246.453 84.0035C245.456 91.1867 242.063 94.5787 235.079 90.189C230.489 80.6114 240.866 79.2147 246.453 84.0035Z" fill="#DEB905"/>
<path fill-rule="evenodd" clip-rule="evenodd" d="M245.855 52.0782C246.054 60.0595 241.664 62.2544 235.278 57.6651C235.278 49.4842 238.671 47.888 245.855 52.0782Z" fill="#DEB905"/>
<path fill-rule="evenodd" clip-rule="evenodd" d="M245.855 114.732C245.855 122.314 241.864 125.107 235.278 120.917C235.278 112.537 238.272 110.142 245.855 114.732Z" fill="#DEB905"/>
<path fill-rule="evenodd" clip-rule="evenodd" d="M231.487 4.5893C231.686 11.1739 229.092 17.559 221.309 13.5683C212.928 9.17856 222.906 -3.99063 231.487 4.5893Z" fill="#DEB905"/>
<path fill-rule="evenodd" clip-rule="evenodd" d="M231.487 130.894C231.487 132.49 231.487 139.075 228.892 139.075C227.096 139.274 218.914 139.274 218.914 136.082C218.116 126.704 225.699 124.11 231.487 130.894Z" fill="#DEB905"/>
<path fill-rule="evenodd" clip-rule="evenodd" d="M230.888 67.6419C230.09 74.8251 226.099 79.6139 219.114 73.8274C218.915 64.8484 223.105 62.6536 230.888 67.6419Z" fill="#DEB905"/>
<path fill-rule="evenodd" clip-rule="evenodd" d="M230.289 35.7165C230.489 43.6979 227.096 47.2895 219.713 42.5007C219.513 34.3198 222.107 30.9277 230.289 35.7165Z" fill="#DEB905"/>
<path fill-rule="evenodd" clip-rule="evenodd" d="M230.289 98.37C230.489 106.351 227.096 109.943 219.713 105.354C215.921 97.7714 225.101 93.3816 230.289 98.37Z" fill="#DEB905"/>
<path fill-rule="evenodd" clip-rule="evenodd" d="M230.289 161.622C230.489 170.601 226.099 172.397 219.114 166.61C218.715 159.427 224.901 156.434 230.289 161.622Z" fill="#DEB905"/>
<path fill-rule="evenodd" clip-rule="evenodd" d="M215.722 52.6769C214.325 62.454 209.336 62.853 202.551 57.6652C202.75 47.489 209.535 47.2895 215.722 52.6769Z" fill="#DEB905"/>
<path fill-rule="evenodd" clip-rule="evenodd" d="M215.722 114.732C216.121 125.307 209.934 126.105 202.551 120.319C202.75 110.342 207.939 109.145 215.722 114.732Z" fill="#DEB905"/>
<path fill-rule="evenodd" clip-rule="evenodd" d="M215.123 20.1528C215.322 28.9323 210.932 32.3244 203.149 26.937C203.349 17.7584 206.941 14.7654 215.123 20.1528Z" fill="#DEB905"/>
<path fill-rule="evenodd" clip-rule="evenodd" d="M215.123 84.0035C214.125 90.189 211.132 94.9778 204.945 90.3885C201.952 88.1937 203.149 88.3932 203.748 84.0035C208.338 78.6161 210.134 79.8133 215.123 84.0035Z" fill="#DEB905"/>
<path fill-rule="evenodd" clip-rule="evenodd" d="M214.524 145.26C214.724 151.246 213.127 157.033 205.943 153.84C198.16 150.448 207.34 138.077 214.524 145.26Z" fill="#DEB905"/>
<path fill-rule="evenodd" clip-rule="evenodd" d="M200.156 4.98832C199.158 12.9697 195.167 17.3594 187.584 11.972C182.795 2.59392 193.97 -7.62939e-06 200.156 4.98832Z" fill="#DEB905"/>
<path fill-rule="evenodd" clip-rule="evenodd" d="M200.156 35.7164C200.356 45.4935 194.768 48.4865 186.985 42.5005C186.985 33.9206 192.573 28.3337 200.156 35.7164Z" fill="#DEB905"/>
<path fill-rule="evenodd" clip-rule="evenodd" d="M200.156 98.9685C199.757 102.56 200.954 106.75 196.364 108.147C194.169 108.746 186.985 106.95 186.985 103.957C186.786 94.7783 193.77 92.5834 200.156 98.9685Z" fill="#DEB905"/>
<path fill-rule="evenodd" clip-rule="evenodd" d="M199.557 67.6417C198.959 73.0291 191.974 82.2077 187.584 73.2287C187.584 64.2497 192.373 62.8529 199.557 67.6417Z" fill="#DEB905"/>
<path fill-rule="evenodd" clip-rule="evenodd" d="M199.557 130.894C198.56 138.077 195.167 141.469 188.382 137.079C183.393 127.701 193.97 126.105 199.557 130.894Z" fill="#DEB905"/>
<path fill-rule="evenodd" clip-rule="evenodd" d="M198.36 162.221C198.36 170.002 188.582 170.002 189.779 163.218C190.777 157.631 194.968 159.826 198.36 162.221Z" fill="#DEB905"/>
<path fill-rule="evenodd" clip-rule="evenodd" d="M185.189 20.7514C184.191 28.7328 182.595 30.1295 174.613 30.1295C166.431 20.5519 176.209 11.7724 185.189 20.7514Z" fill="#DEB905"/>
<path fill-rule="evenodd" clip-rule="evenodd" d="M184.591 83.4048C183.593 94.3791 178.803 95.3768 170.821 88.3931C170.821 78.616 178.005 77.8179 184.591 83.4048Z" fill="#DEB905"/>
<path fill-rule="evenodd" clip-rule="evenodd" d="M183.792 51.4795C183.992 58.4632 180.599 65.2473 173.415 59.0618C170.023 56.0688 171.021 53.6744 173.615 50.4818C177.606 46.2916 179.801 48.4865 183.792 51.4795Z" fill="#DEB905"/>
<path fill-rule="evenodd" clip-rule="evenodd" d="M183.792 115.131C182.994 121.316 179.801 126.105 173.615 121.516C170.622 119.321 171.819 119.72 172.418 115.131C177.207 109.943 178.803 111.14 183.792 115.131Z" fill="#DEB905"/>
<path fill-rule="evenodd" clip-rule="evenodd" d="M182.595 145.859C182.595 153.242 179.003 155.037 173.216 150.847C173.216 144.861 177.606 140.671 182.595 145.859Z" fill="#DEB905"/>
<path fill-rule="evenodd" clip-rule="evenodd" d="M170.023 3.79106C169.424 11.5729 164.236 21.35 156.054 12.5705C153.659 9.97659 154.058 5.38733 156.453 2.59386C161.043 -2.39447 165.832 0.798063 170.023 3.79106Z" fill="#DEB905"/>
<path fill-rule="evenodd" clip-rule="evenodd" d="M168.826 36.315C169.025 43.4982 164.834 49.0851 157.65 43.8973C154.657 41.7024 156.054 39.7071 156.453 36.315C160.843 31.1271 163.637 32.1248 168.826 36.315Z" fill="#DEB905"/>
<path fill-rule="evenodd" clip-rule="evenodd" d="M168.826 67.0431C169.025 74.8249 164.834 81.8086 157.251 75.224C149.868 68.8389 161.242 59.4609 168.826 67.0431Z" fill="#DEB905"/>
<path fill-rule="evenodd" clip-rule="evenodd" d="M168.227 98.9685C167.628 104.555 161.043 113.335 156.253 104.555C156.253 95.5764 161.043 94.1797 168.227 98.9685Z" fill="#DEB905"/>
<path fill-rule="evenodd" clip-rule="evenodd" d="M167.628 130.894C167.429 137.678 163.038 140.072 157.65 136.481C153.46 128.699 162.639 125.905 167.628 130.894Z" fill="#DEB905"/>
<path fill-rule="evenodd" clip-rule="evenodd" d="M167.03 162.221C167.03 168.606 157.65 171.399 157.65 166.012C158.049 158.828 162.041 158.629 167.03 162.221Z" fill="#DEB905"/>
<path fill-rule="evenodd" clip-rule="evenodd" d="M154.457 21.3501C153.859 26.1389 154.058 26.7375 150.666 30.7282C146.475 30.9277 141.087 31.1273 139.89 26.3385C137.695 15.5637 148.67 13.5683 154.457 21.3501Z" fill="#DEB905"/>
<path fill-rule="evenodd" clip-rule="evenodd" d="M153.859 52.6768C152.661 62.4539 146.874 64.0502 139.491 58.2637C139.491 47.888 147.273 45.0945 153.859 52.6768Z" fill="#DEB905"/>
<path fill-rule="evenodd" clip-rule="evenodd" d="M152.661 82.6068C152.861 91.3863 148.471 94.7784 140.888 89.391C140.688 80.412 144.679 77.818 152.661 82.6068Z" fill="#DEB905"/>
<path fill-rule="evenodd" clip-rule="evenodd" d="M152.063 113.933C152.262 122.114 148.271 125.107 141.486 120.119C141.287 113.933 146.076 107.947 152.063 113.933Z" fill="#DEB905"/>
<path fill-rule="evenodd" clip-rule="evenodd" d="M151.265 145.859C151.265 153.241 147.672 155.037 141.885 150.847C142.085 145.061 146.276 140.671 151.265 145.859Z" fill="#DEB905"/>
<path fill-rule="evenodd" clip-rule="evenodd" d="M138.892 3.79101C138.094 12.77 132.905 19.7537 123.925 12.5705C118.737 1.79567 131.708 -3.19266 138.892 3.79101Z" fill="#DEB905"/>
<path fill-rule="evenodd" clip-rule="evenodd" d="M138.293 35.7164C137.495 44.4959 133.105 49.8833 124.524 43.8973C119.535 33.7211 131.309 28.9323 138.293 35.7164Z" fill="#DEB905"/>
<path fill-rule="evenodd" clip-rule="evenodd" d="M137.495 67.6418C137.495 74.2264 132.905 80.6115 126.12 74.825C123.726 72.6301 123.726 69.8367 125.921 66.8437C129.513 61.6558 133.304 64.6488 137.495 67.6418Z" fill="#DEB905"/>
<path fill-rule="evenodd" clip-rule="evenodd" d="M137.495 162.221C137.695 171.798 131.309 171.998 124.923 166.61C125.122 155.835 130.511 156.833 137.495 162.221Z" fill="#DEB905"/>
<path fill-rule="evenodd" clip-rule="evenodd" d="M136.896 99.567C136.298 103.159 136.098 106.95 131.508 106.95C130.111 106.95 125.721 106.351 125.721 104.356C125.522 95.5763 129.912 93.7805 136.896 99.567Z" fill="#DEB905"/>
<path fill-rule="evenodd" clip-rule="evenodd" d="M136.298 130.894C136.298 137.878 132.107 140.072 126.32 136.481C122.329 128.3 131.109 125.706 136.298 130.894Z" fill="#DEB905"/>
<path fill-rule="evenodd" clip-rule="evenodd" d="M123.127 20.1529C122.129 30.3291 116.142 34.3198 107.561 27.7352C107.561 16.5613 114.346 12.5706 123.127 20.1529Z" fill="#DEB905"/>
<path fill-rule="evenodd" clip-rule="evenodd" d="M121.93 51.4795C122.329 60.4585 116.741 65.4468 108.759 59.0618C108.559 49.8832 114.346 43.6977 121.93 51.4795Z" fill="#DEB905"/>
<path fill-rule="evenodd" clip-rule="evenodd" d="M121.93 83.4049C121.131 90.3886 113.149 97.3722 108.759 88.3932C108.958 79.0152 115.743 77.2194 121.93 83.4049Z" fill="#DEB905"/>
<path fill-rule="evenodd" clip-rule="evenodd" d="M121.93 148.453C121.93 156.634 109.357 156.035 109.357 151.047C109.158 141.07 120.133 139.274 121.93 148.453Z" fill="#DEB905"/>
<path fill-rule="evenodd" clip-rule="evenodd" d="M121.331 115.131C120.932 118.523 120.533 123.112 115.743 122.713C114.346 122.713 110.156 121.516 110.156 119.52C109.956 110.741 114.745 109.743 121.331 115.131Z" fill="#DEB905"/>
<path fill-rule="evenodd" clip-rule="evenodd" d="M107.561 4.9884C106.364 16.1623 100.178 17.7585 91.9959 10.5753C92.9937 0.399132 100.178 -2.39434 107.561 4.9884Z" fill="#DEB905"/>
<path fill-rule="evenodd" clip-rule="evenodd" d="M107.561 36.3151C106.564 46.2918 99.5791 50.0829 92.5946 41.902C92.5946 31.5263 100.178 29.1319 107.561 36.3151Z" fill="#DEB905"/>
<path fill-rule="evenodd" clip-rule="evenodd" d="M106.963 68.2404C106.364 73.0292 105.765 77.2194 100.178 76.6208C95.7875 76.2217 93.1933 75.6231 93.5924 70.6348C94.3906 61.2567 101.974 62.6535 106.963 68.2404Z" fill="#DEB905"/>
<path fill-rule="evenodd" clip-rule="evenodd" d="M106.364 130.894C106.364 137.479 100.776 144.662 94.7897 137.079C92.7941 134.486 92.395 130.495 95.1888 128.1C99.9782 124.509 102.772 127.901 106.364 130.894Z" fill="#DEB905"/>
<path fill-rule="evenodd" clip-rule="evenodd" d="M105.765 98.37C105.965 104.156 102.972 111.34 95.987 106.351C92.9937 104.156 92.9937 101.363 95.1888 98.1704C97.9826 94.1798 102.173 96.1751 105.765 98.37Z" fill="#DEB905"/>
<path fill-rule="evenodd" clip-rule="evenodd" d="M105.167 161.622C105.366 169.803 100.976 172.796 93.9915 168.007C93.7919 160.624 98.5813 155.237 105.167 161.622Z" fill="#DEB905"/>
<path fill-rule="evenodd" clip-rule="evenodd" d="M91.9959 52.0783C91.3972 57.6652 90.9981 63.0526 83.6145 61.8554C81.8185 61.6559 77.0291 59.8601 77.0291 57.6652C77.8273 47.2895 84.2132 44.2965 91.9959 52.0783Z" fill="#DEB905"/>
<path fill-rule="evenodd" clip-rule="evenodd" d="M91.3972 19.5542C91.7963 29.7304 85.6101 34.1202 77.0291 27.7351C77.0291 17.1598 81.6189 13.1692 91.3972 19.5542Z" fill="#DEB905"/>
<path fill-rule="evenodd" clip-rule="evenodd" d="M90.599 83.4049C90.599 89.9895 88.2043 93.182 81.8185 92.1843C73.4371 84.8016 82.2176 74.8249 90.599 83.4049Z" fill="#DEB905"/>
<path fill-rule="evenodd" clip-rule="evenodd" d="M90.599 114.732C90.1999 117.924 91.1977 121.516 87.8052 123.511C83.2154 126.105 77.0291 122.314 77.2286 117.126C77.8273 108.147 86.2087 111.34 90.599 114.732Z" fill="#DEB905"/>
<path fill-rule="evenodd" clip-rule="evenodd" d="M89.4016 145.26C89.6012 151.446 87.8052 157.033 80.8207 153.84C73.0379 150.448 82.2176 138.077 89.4016 145.26Z" fill="#DEB905"/>
<path fill-rule="evenodd" clip-rule="evenodd" d="M76.2309 36.315C75.6322 41.3033 75.6322 41.9019 72.4393 46.2916C67.0512 45.693 60.8649 46.0921 61.4636 39.1084C62.4614 28.7327 70.4437 31.3267 76.2309 36.315Z" fill="#DEB905"/>
<path fill-rule="evenodd" clip-rule="evenodd" d="M75.6322 4.5892C76.0313 15.364 69.2463 17.5589 61.264 11.5729C61.264 1.39667 67.8494 -3.39213 75.6322 4.5892Z" fill="#DEB905"/>
<path fill-rule="evenodd" clip-rule="evenodd" d="M75.6322 67.6417C75.0335 74.2263 67.2508 83.6044 62.4614 73.6277C57.8715 63.252 69.845 61.8552 75.6322 67.6417Z" fill="#DEB905"/>
<path fill-rule="evenodd" clip-rule="evenodd" d="M75.0335 98.9685C74.0357 109.544 69.0468 110.741 61.264 103.957C61.264 94.3792 69.0468 92.9825 75.0335 98.9685Z" fill="#DEB905"/>
<path fill-rule="evenodd" clip-rule="evenodd" d="M74.4348 130.894C73.437 138.077 69.6454 141.27 63.2596 137.079C58.2707 127.701 68.8472 126.105 74.4348 130.894Z" fill="#DEB905"/>
<path fill-rule="evenodd" clip-rule="evenodd" d="M73.2375 161.622C73.437 169.005 69.845 170.8 63.8583 166.61C63.8583 160.624 68.049 156.434 73.2375 161.622Z" fill="#DEB905"/>
<path fill-rule="evenodd" clip-rule="evenodd" d="M60.6654 20.7513C60.0667 26.1387 59.8671 30.9275 53.0822 30.5285C48.4924 30.1294 45.8981 28.7327 46.0977 23.5448C46.6963 13.7677 55.4769 13.9672 60.6654 20.7513Z" fill="#DEB905"/>
<path fill-rule="evenodd" clip-rule="evenodd" d="M60.0667 52.0783C59.6676 56.468 59.8671 57.8648 56.8738 61.4564C51.6853 61.0573 45.8981 62.055 46.2972 55.2708C46.8959 45.6932 54.6786 45.8928 60.0667 52.0783Z" fill="#DEB905"/>
<path fill-rule="evenodd" clip-rule="evenodd" d="M60.0667 84.0036C58.8693 94.7784 44.5012 96.1751 45.8981 85.4003C46.8959 76.2218 55.6764 79.0152 60.0667 84.0036Z" fill="#DEB905"/>
<path fill-rule="evenodd" clip-rule="evenodd" d="M58.8694 114.732C58.0711 121.915 54.08 126.504 46.8959 120.917C42.3061 112.138 53.4813 109.344 58.8694 114.732Z" fill="#DEB905"/>
<path fill-rule="evenodd" clip-rule="evenodd" d="M58.0711 145.859C57.4724 150.847 51.4857 159.228 47.4946 150.847C47.6941 143.065 52.0844 142.267 58.0711 145.859Z" fill="#DEB905"/>
<path fill-rule="evenodd" clip-rule="evenodd" d="M45.6986 5.78647C44.9003 12.3711 43.3039 16.5613 36.1198 13.9673C31.9291 12.5706 31.53 11.1739 32.1286 6.98367C32.9269 -1.59626 41.7074 0.399072 45.6986 5.78647Z" fill="#DEB905"/>
<path fill-rule="evenodd" clip-rule="evenodd" d="M45.499 36.9136C45.499 46.4912 39.5123 48.0874 32.3282 42.5005C32.3282 33.322 38.5145 29.9299 45.499 36.9136Z" fill="#DEB905"/>
<path fill-rule="evenodd" clip-rule="evenodd" d="M44.3016 99.5672C43.9025 102.959 43.5034 107.349 38.714 106.95C37.3171 106.75 33.1264 105.753 33.1264 103.757C32.9269 95.1775 37.7163 94.1798 44.3016 99.5672Z" fill="#DEB905"/>
<path fill-rule="evenodd" clip-rule="evenodd" d="M45.0999 66.8437C45.0999 72.4306 42.9047 77.6185 36.5189 73.8273C30.5322 70.4353 38.1154 59.86 45.0999 66.8437Z" fill="#DEB905"/>
<path fill-rule="evenodd" clip-rule="evenodd" d="M43.1043 130.894C43.1043 137.279 33.7251 140.272 33.7251 134.685C34.1242 127.701 38.1154 127.302 43.1043 130.894Z" fill="#DEB905"/>
<path fill-rule="evenodd" clip-rule="evenodd" d="M29.9335 52.6767C29.3348 57.4655 28.7362 61.6557 23.1486 61.0571C18.9579 60.4585 15.9645 59.4608 16.5632 54.672C17.3614 46.4911 25.9424 46.4911 29.9335 52.6767Z" fill="#DEB905"/>
<path fill-rule="evenodd" clip-rule="evenodd" d="M29.3348 19.5542C29.7339 29.5309 24.745 33.5216 16.164 26.937C16.164 19.1552 21.9512 11.972 29.3348 19.5542Z" fill="#DEB905"/>
<path fill-rule="evenodd" clip-rule="evenodd" d="M28.7362 83.4049C27.5388 94.1797 14.7671 93.7806 17.3614 84.6021C18.7583 79.4143 26.3415 78.2171 28.7362 83.4049Z" fill="#DEB905"/>
<path fill-rule="evenodd" clip-rule="evenodd" d="M27.5388 114.732C27.7384 121.715 24.5454 124.309 18.1596 120.318C18.1596 112.736 21.3525 110.342 27.5388 114.732Z" fill="#DEB905"/>
<path fill-rule="evenodd" clip-rule="evenodd" d="M27.5388 146.458C27.5388 152.843 18.1596 155.836 18.1596 150.249C18.5587 143.265 22.5499 143.065 27.5388 146.458Z" fill="#DEB905"/>
<path fill-rule="evenodd" clip-rule="evenodd" d="M14.368 5.78644C13.1707 16.1622 -1.59657 18.7561 0.199446 6.98364C1.59635 -2.19489 10.3769 -2.39015e-05 14.368 5.78644Z" fill="#DEB905"/>
<path fill-rule="evenodd" clip-rule="evenodd" d="M14.368 37.1132C13.7693 42.3011 13.5698 46.4913 6.98439 45.6931C5.38793 45.4936 0.598553 44.0969 0.598553 42.1015C0.398995 31.5263 7.98218 29.5309 14.368 37.1132Z" fill="#DEB905"/>
<path fill-rule="evenodd" clip-rule="evenodd" d="M14.368 68.2404C13.5698 74.6254 11.9733 78.8156 4.78925 76.4212C0.798097 75.0245 0.199424 73.8273 0.798097 69.8366C1.79588 61.4562 10.3769 62.6534 14.368 68.2404Z" fill="#DEB905"/>
<path fill-rule="evenodd" clip-rule="evenodd" d="M12.572 99.5672C12.7716 106.95 6.98439 108.147 1.7959 103.957C1.7959 98.1704 8.97997 92.384 12.572 99.5672Z" fill="#DEB905"/>
<path fill-rule="evenodd" clip-rule="evenodd" d="M11.7738 130.894C11.7738 137.279 2.39456 140.272 2.39456 134.685C2.79368 127.701 6.78483 127.302 11.7738 130.894Z" fill="#DEB905"/>
</g>
<defs>
<clipPath id="clip0_0_88">
<rect width="451" height="171" fill="white"/>
</clipPath>
</defs>
</svg>
